<mxfile host="Electron" modified="2024-05-12T11:59:38.549Z" agent="Mozilla/5.0 (Windows NT 10.0; Win64; x64) AppleWebKit/537.36 (KHTML, like Gecko) draw.io/24.2.5 Chrome/120.0.6099.109 Electron/28.1.0 Safari/537.36" etag="8Sa75MPXor03PjvBko45" version="24.2.5" type="device">
  <diagram name="Page-1" id="wis_ripwpcVDEx0ij4H9">
    <mxGraphModel dx="1091" dy="638" grid="1" gridSize="10" guides="1" tooltips="1" connect="1" arrows="1" fold="1" page="1" pageScale="1" pageWidth="850" pageHeight="1100" math="0" shadow="0">
      <root>
        <mxCell id="0" />
        <mxCell id="1" parent="0" />
        <mxCell id="2o-yf7IpowgT4VrcLn00-18" style="edgeStyle=orthogonalEdgeStyle;rounded=0;orthogonalLoop=1;jettySize=auto;html=1;exitX=0.5;exitY=0.5;exitDx=0;exitDy=0;exitPerimeter=0;entryX=0;entryY=0.5;entryDx=0;entryDy=0;" edge="1" parent="1" source="2o-yf7IpowgT4VrcLn00-1" target="2o-yf7IpowgT4VrcLn00-10">
          <mxGeometry relative="1" as="geometry" />
        </mxCell>
        <mxCell id="2o-yf7IpowgT4VrcLn00-19" style="edgeStyle=orthogonalEdgeStyle;rounded=0;orthogonalLoop=1;jettySize=auto;html=1;exitX=0.5;exitY=0.5;exitDx=0;exitDy=0;exitPerimeter=0;entryX=0;entryY=0.5;entryDx=0;entryDy=0;" edge="1" parent="1" source="2o-yf7IpowgT4VrcLn00-1" target="2o-yf7IpowgT4VrcLn00-11">
          <mxGeometry relative="1" as="geometry" />
        </mxCell>
        <mxCell id="2o-yf7IpowgT4VrcLn00-47" style="edgeStyle=orthogonalEdgeStyle;rounded=0;orthogonalLoop=1;jettySize=auto;html=1;exitX=0.5;exitY=0.5;exitDx=0;exitDy=0;exitPerimeter=0;entryX=0;entryY=0.5;entryDx=0;entryDy=0;" edge="1" parent="1" source="2o-yf7IpowgT4VrcLn00-1" target="2o-yf7IpowgT4VrcLn00-13">
          <mxGeometry relative="1" as="geometry" />
        </mxCell>
        <mxCell id="2o-yf7IpowgT4VrcLn00-49" style="edgeStyle=orthogonalEdgeStyle;rounded=0;orthogonalLoop=1;jettySize=auto;html=1;exitX=0.5;exitY=0.5;exitDx=0;exitDy=0;exitPerimeter=0;entryX=0;entryY=0.5;entryDx=0;entryDy=0;" edge="1" parent="1" source="2o-yf7IpowgT4VrcLn00-1" target="2o-yf7IpowgT4VrcLn00-26">
          <mxGeometry relative="1" as="geometry" />
        </mxCell>
        <mxCell id="2o-yf7IpowgT4VrcLn00-1" value="Admin" style="shape=umlActor;verticalLabelPosition=bottom;verticalAlign=top;html=1;outlineConnect=0;" vertex="1" parent="1">
          <mxGeometry x="120" y="270" width="30" height="60" as="geometry" />
        </mxCell>
        <mxCell id="2o-yf7IpowgT4VrcLn00-35" style="edgeStyle=orthogonalEdgeStyle;rounded=0;orthogonalLoop=1;jettySize=auto;html=1;exitX=0.5;exitY=0.5;exitDx=0;exitDy=0;exitPerimeter=0;entryX=1;entryY=0.5;entryDx=0;entryDy=0;" edge="1" parent="1" source="2o-yf7IpowgT4VrcLn00-2" target="2o-yf7IpowgT4VrcLn00-31">
          <mxGeometry relative="1" as="geometry">
            <Array as="points">
              <mxPoint x="700" y="300" />
              <mxPoint x="700" y="440" />
            </Array>
          </mxGeometry>
        </mxCell>
        <mxCell id="2o-yf7IpowgT4VrcLn00-2" value="Client" style="shape=umlActor;verticalLabelPosition=bottom;verticalAlign=top;html=1;outlineConnect=0;" vertex="1" parent="1">
          <mxGeometry x="760" y="270" width="30" height="60" as="geometry" />
        </mxCell>
        <mxCell id="2o-yf7IpowgT4VrcLn00-4" value="World Fashion Usecase" style="text;html=1;align=center;verticalAlign=middle;resizable=0;points=[];autosize=1;strokeColor=none;fillColor=none;fontSize=32;" vertex="1" parent="1">
          <mxGeometry x="245" y="10" width="360" height="50" as="geometry" />
        </mxCell>
        <mxCell id="2o-yf7IpowgT4VrcLn00-38" style="edgeStyle=orthogonalEdgeStyle;rounded=0;orthogonalLoop=1;jettySize=auto;html=1;exitX=0;exitY=0.5;exitDx=0;exitDy=0;entryX=1;entryY=0.5;entryDx=0;entryDy=0;" edge="1" parent="1" source="2o-yf7IpowgT4VrcLn00-5" target="2o-yf7IpowgT4VrcLn00-8">
          <mxGeometry relative="1" as="geometry" />
        </mxCell>
        <mxCell id="2o-yf7IpowgT4VrcLn00-73" style="edgeStyle=orthogonalEdgeStyle;rounded=0;orthogonalLoop=1;jettySize=auto;html=1;exitX=1;exitY=0.5;exitDx=0;exitDy=0;entryX=1;entryY=0;entryDx=0;entryDy=0;" edge="1" parent="1" source="2o-yf7IpowgT4VrcLn00-5" target="2o-yf7IpowgT4VrcLn00-31">
          <mxGeometry relative="1" as="geometry">
            <Array as="points">
              <mxPoint x="680" y="220" />
              <mxPoint x="680" y="412" />
            </Array>
          </mxGeometry>
        </mxCell>
        <mxCell id="2o-yf7IpowgT4VrcLn00-5" value="Pemesanan Tiket" style="ellipse;whiteSpace=wrap;html=1;" vertex="1" parent="1">
          <mxGeometry x="540" y="180" width="120" height="80" as="geometry" />
        </mxCell>
        <mxCell id="2o-yf7IpowgT4VrcLn00-6" value="Client Order Tiket" style="text;html=1;align=center;verticalAlign=middle;resizable=0;points=[];autosize=1;strokeColor=none;fillColor=none;" vertex="1" parent="1">
          <mxGeometry x="625" y="160" width="120" height="30" as="geometry" />
        </mxCell>
        <mxCell id="2o-yf7IpowgT4VrcLn00-72" style="edgeStyle=orthogonalEdgeStyle;rounded=0;orthogonalLoop=1;jettySize=auto;html=1;exitX=0;exitY=0.5;exitDx=0;exitDy=0;entryX=1;entryY=0.5;entryDx=0;entryDy=0;" edge="1" parent="1" source="2o-yf7IpowgT4VrcLn00-8" target="2o-yf7IpowgT4VrcLn00-11">
          <mxGeometry relative="1" as="geometry" />
        </mxCell>
        <mxCell id="2o-yf7IpowgT4VrcLn00-8" value="Transaksi" style="ellipse;whiteSpace=wrap;html=1;" vertex="1" parent="1">
          <mxGeometry x="380" y="180" width="120" height="80" as="geometry" />
        </mxCell>
        <mxCell id="2o-yf7IpowgT4VrcLn00-70" style="edgeStyle=orthogonalEdgeStyle;rounded=0;orthogonalLoop=1;jettySize=auto;html=1;exitX=0.5;exitY=0;exitDx=0;exitDy=0;entryX=0.5;entryY=1;entryDx=0;entryDy=0;" edge="1" parent="1" source="2o-yf7IpowgT4VrcLn00-9" target="2o-yf7IpowgT4VrcLn00-31">
          <mxGeometry relative="1" as="geometry" />
        </mxCell>
        <mxCell id="2o-yf7IpowgT4VrcLn00-9" value="Bukti Transaksi" style="ellipse;whiteSpace=wrap;html=1;" vertex="1" parent="1">
          <mxGeometry x="540" y="510" width="120" height="80" as="geometry" />
        </mxCell>
        <mxCell id="2o-yf7IpowgT4VrcLn00-10" value="Input Tiket" style="ellipse;whiteSpace=wrap;html=1;" vertex="1" parent="1">
          <mxGeometry x="220" y="180" width="120" height="80" as="geometry" />
        </mxCell>
        <mxCell id="2o-yf7IpowgT4VrcLn00-21" style="edgeStyle=orthogonalEdgeStyle;rounded=0;orthogonalLoop=1;jettySize=auto;html=1;exitX=0.5;exitY=1;exitDx=0;exitDy=0;entryX=0.5;entryY=0;entryDx=0;entryDy=0;" edge="1" parent="1" source="2o-yf7IpowgT4VrcLn00-11" target="2o-yf7IpowgT4VrcLn00-12">
          <mxGeometry relative="1" as="geometry" />
        </mxCell>
        <mxCell id="2o-yf7IpowgT4VrcLn00-11" value="Cek Bukti Transaksi" style="ellipse;whiteSpace=wrap;html=1;" vertex="1" parent="1">
          <mxGeometry x="220" y="290" width="120" height="80" as="geometry" />
        </mxCell>
        <mxCell id="2o-yf7IpowgT4VrcLn00-45" style="edgeStyle=orthogonalEdgeStyle;rounded=0;orthogonalLoop=1;jettySize=auto;html=1;exitX=0.5;exitY=1;exitDx=0;exitDy=0;entryX=0.5;entryY=0;entryDx=0;entryDy=0;" edge="1" parent="1" source="2o-yf7IpowgT4VrcLn00-12" target="2o-yf7IpowgT4VrcLn00-44">
          <mxGeometry relative="1" as="geometry" />
        </mxCell>
        <mxCell id="2o-yf7IpowgT4VrcLn00-12" value="Autentifikasi Data Client" style="ellipse;whiteSpace=wrap;html=1;" vertex="1" parent="1">
          <mxGeometry x="220" y="400" width="120" height="80" as="geometry" />
        </mxCell>
        <mxCell id="2o-yf7IpowgT4VrcLn00-59" style="edgeStyle=orthogonalEdgeStyle;rounded=0;orthogonalLoop=1;jettySize=auto;html=1;exitX=1;exitY=0.5;exitDx=0;exitDy=0;entryX=0;entryY=0.5;entryDx=0;entryDy=0;" edge="1" parent="1" source="2o-yf7IpowgT4VrcLn00-13" target="2o-yf7IpowgT4VrcLn00-24">
          <mxGeometry relative="1" as="geometry" />
        </mxCell>
        <mxCell id="2o-yf7IpowgT4VrcLn00-13" value="Kirim QR Tiket Melalui Email Ke Client" style="ellipse;whiteSpace=wrap;html=1;" vertex="1" parent="1">
          <mxGeometry x="220" y="620" width="120" height="80" as="geometry" />
        </mxCell>
        <mxCell id="2o-yf7IpowgT4VrcLn00-71" style="edgeStyle=orthogonalEdgeStyle;rounded=0;orthogonalLoop=1;jettySize=auto;html=1;exitX=1;exitY=0.5;exitDx=0;exitDy=0;entryX=1;entryY=1;entryDx=0;entryDy=0;" edge="1" parent="1" source="2o-yf7IpowgT4VrcLn00-24" target="2o-yf7IpowgT4VrcLn00-31">
          <mxGeometry relative="1" as="geometry">
            <Array as="points">
              <mxPoint x="680" y="660" />
              <mxPoint x="680" y="468" />
            </Array>
          </mxGeometry>
        </mxCell>
        <mxCell id="2o-yf7IpowgT4VrcLn00-24" value="Menerima Tiket" style="ellipse;whiteSpace=wrap;html=1;" vertex="1" parent="1">
          <mxGeometry x="540" y="620" width="120" height="80" as="geometry" />
        </mxCell>
        <mxCell id="2o-yf7IpowgT4VrcLn00-26" value="Update Database Tiket" style="ellipse;whiteSpace=wrap;html=1;" vertex="1" parent="1">
          <mxGeometry x="220" y="730" width="120" height="80" as="geometry" />
        </mxCell>
        <mxCell id="2o-yf7IpowgT4VrcLn00-29" value="Client Memasukan Nomor Telfon&lt;div&gt;Untuk Menerima Tiket &amp;amp; Bukti Transaksi&lt;/div&gt;" style="text;html=1;align=center;verticalAlign=middle;resizable=0;points=[];autosize=1;strokeColor=none;fillColor=none;" vertex="1" parent="1">
          <mxGeometry x="320" y="135" width="240" height="40" as="geometry" />
        </mxCell>
        <mxCell id="2o-yf7IpowgT4VrcLn00-30" value="Client Melakukan Transaksi&lt;div&gt;Pembayaran Tiket&lt;/div&gt;" style="text;html=1;align=center;verticalAlign=middle;resizable=0;points=[];autosize=1;strokeColor=none;fillColor=none;" vertex="1" parent="1">
          <mxGeometry x="680" y="470" width="170" height="40" as="geometry" />
        </mxCell>
        <mxCell id="2o-yf7IpowgT4VrcLn00-69" style="edgeStyle=orthogonalEdgeStyle;rounded=0;orthogonalLoop=1;jettySize=auto;html=1;exitX=0.5;exitY=0;exitDx=0;exitDy=0;entryX=0.5;entryY=1;entryDx=0;entryDy=0;" edge="1" parent="1" source="2o-yf7IpowgT4VrcLn00-31" target="2o-yf7IpowgT4VrcLn00-32">
          <mxGeometry relative="1" as="geometry" />
        </mxCell>
        <mxCell id="2o-yf7IpowgT4VrcLn00-31" value="Client Login/Signup" style="ellipse;whiteSpace=wrap;html=1;" vertex="1" parent="1">
          <mxGeometry x="540" y="400" width="120" height="80" as="geometry" />
        </mxCell>
        <mxCell id="2o-yf7IpowgT4VrcLn00-32" value="Autentifikasi Data Diri" style="ellipse;whiteSpace=wrap;html=1;" vertex="1" parent="1">
          <mxGeometry x="540" y="290" width="120" height="80" as="geometry" />
        </mxCell>
        <mxCell id="2o-yf7IpowgT4VrcLn00-58" style="edgeStyle=orthogonalEdgeStyle;rounded=0;orthogonalLoop=1;jettySize=auto;html=1;exitX=1;exitY=0.5;exitDx=0;exitDy=0;entryX=0;entryY=0.5;entryDx=0;entryDy=0;" edge="1" parent="1" source="2o-yf7IpowgT4VrcLn00-44" target="2o-yf7IpowgT4VrcLn00-9">
          <mxGeometry relative="1" as="geometry" />
        </mxCell>
        <mxCell id="2o-yf7IpowgT4VrcLn00-44" value="Kirim Bukti Transaksi" style="ellipse;whiteSpace=wrap;html=1;" vertex="1" parent="1">
          <mxGeometry x="220" y="510" width="120" height="80" as="geometry" />
        </mxCell>
        <mxCell id="2o-yf7IpowgT4VrcLn00-50" value="Usecase Pembelian Tiket" style="text;html=1;align=center;verticalAlign=middle;resizable=0;points=[];autosize=1;strokeColor=none;fillColor=none;fontSize=24;" vertex="1" parent="1">
          <mxGeometry x="280" y="75" width="290" height="40" as="geometry" />
        </mxCell>
        <mxCell id="2o-yf7IpowgT4VrcLn00-53" value="&amp;lt;&amp;lt;include&amp;gt;&amp;gt;" style="text;html=1;align=center;verticalAlign=middle;resizable=0;points=[];autosize=1;strokeColor=none;fillColor=none;" vertex="1" parent="1">
          <mxGeometry x="515" y="370" width="90" height="30" as="geometry" />
        </mxCell>
        <mxCell id="2o-yf7IpowgT4VrcLn00-57" value="&amp;lt;&amp;lt;extend&amp;gt;&amp;gt;" style="text;html=1;align=center;verticalAlign=middle;resizable=0;points=[];autosize=1;strokeColor=none;fillColor=none;" vertex="1" parent="1">
          <mxGeometry x="350" y="270" width="90" height="30" as="geometry" />
        </mxCell>
        <mxCell id="2o-yf7IpowgT4VrcLn00-65" value="&amp;lt;&amp;lt;extend&amp;gt;&amp;gt;" style="text;html=1;align=center;verticalAlign=middle;resizable=0;points=[];autosize=1;strokeColor=none;fillColor=none;" vertex="1" parent="1">
          <mxGeometry x="615" y="368" width="90" height="30" as="geometry" />
        </mxCell>
        <mxCell id="2o-yf7IpowgT4VrcLn00-66" value="&amp;lt;&amp;lt;extend&amp;gt;&amp;gt;." style="text;html=1;align=center;verticalAlign=middle;resizable=0;points=[];autosize=1;strokeColor=none;fillColor=none;" vertex="1" parent="1">
          <mxGeometry x="675" y="558" width="90" height="30" as="geometry" />
        </mxCell>
        <mxCell id="2o-yf7IpowgT4VrcLn00-67" value="&amp;lt;&amp;lt;extend&amp;gt;&amp;gt;." style="text;html=1;align=center;verticalAlign=middle;resizable=0;points=[];autosize=1;strokeColor=none;fillColor=none;" vertex="1" parent="1">
          <mxGeometry x="515" y="480" width="90" height="30" as="geometry" />
        </mxCell>
      </root>
    </mxGraphModel>
  </diagram>
</mxfile>
